<?xml version="1.0" encoding="utf-8"?>
<!-- Generator: Adobe Illustrator 19.0.0, SVG Export Plug-In . SVG Version: 6.00 Build 0)  -->
<svg version="1.1" id="Layer_1" xmlns="http://www.w3.org/2000/svg" xmlns:xlink="http://www.w3.org/1999/xlink" x="0px" y="0px"
	 viewBox="0 0 485 205" style="enable-background:new 0 0 485 205;" xml:space="preserve">
<style type="text/css">
	.st0{fill:#434343;}
</style>
<path id="XMLID_19_" class="st0" d="M485,205H0V0h485V205z M5,200h475V5H5V200z"/>
<g id="XMLID_3_">
	<path id="XMLID_17_" class="st0" d="M76.5,60.4c0.5,0.1,0.9,0.2,1.3,0.4c0.4,0.2,0.8,0.4,1.1,0.8c0.4,0.3,0.8,0.8,1.2,1.3l45.5,58
		c-0.2-1.4-0.3-2.8-0.3-4.1c-0.1-1.3-0.1-2.6-0.1-3.8V60.3h14.2V147h-8.3c-1.3,0-2.3-0.2-3.2-0.6c-0.8-0.4-1.7-1.1-2.5-2.2
		L80.1,86.5c0.1,1.3,0.2,2.5,0.3,3.8c0.1,1.3,0.1,2.4,0.1,3.5V147H66.3V60.3h8.5C75.4,60.3,76,60.3,76.5,60.4z"/>
	<path id="XMLID_15_" class="st0" d="M197.5,76c-0.4,0.9-1,1.5-1.5,1.9c-0.6,0.4-1.3,0.5-2.1,0.5c-0.8,0-1.7-0.3-2.7-0.9
		c-1-0.6-2.2-1.3-3.5-2.1c-1.4-0.8-3-1.4-4.8-2.1c-1.8-0.6-4-0.9-6.4-0.9c-2.2,0-4.2,0.3-5.9,0.8c-1.7,0.5-3.1,1.3-4.2,2.2
		s-2,2.1-2.5,3.5c-0.6,1.3-0.8,2.8-0.8,4.4c0,2,0.6,3.7,1.7,5.1c1.1,1.4,2.6,2.5,4.5,3.5c1.9,1,4,1.8,6.4,2.6
		c2.4,0.8,4.8,1.6,7.4,2.4c2.5,0.9,5,1.9,7.4,3c2.4,1.1,4.5,2.6,6.4,4.3c1.9,1.7,3.4,3.9,4.5,6.4c1.1,2.5,1.7,5.6,1.7,9.2
		c0,3.9-0.7,7.6-2,11c-1.3,3.4-3.3,6.4-5.9,8.9c-2.6,2.5-5.7,4.5-9.5,6c-3.7,1.5-8,2.2-12.8,2.2c-2.8,0-5.5-0.3-8.2-0.8
		c-2.7-0.5-5.2-1.3-7.7-2.3c-2.5-1-4.8-2.2-6.9-3.6c-2.1-1.4-4.1-3-5.7-4.7l4.7-7.7c0.4-0.6,1-1,1.6-1.4c0.6-0.4,1.3-0.6,2.1-0.6
		c1,0,2.1,0.4,3.2,1.2c1.2,0.8,2.5,1.7,4.1,2.7c1.6,1,3.4,1.9,5.6,2.7c2.1,0.8,4.7,1.2,7.7,1.2c4.6,0,8.2-1.1,10.7-3.3
		c2.5-2.2,3.8-5.3,3.8-9.4c0-2.3-0.6-4.1-1.7-5.6c-1.1-1.4-2.7-2.6-4.5-3.6c-1.9-1-4-1.8-6.4-2.5c-2.4-0.7-4.8-1.4-7.3-2.2
		c-2.5-0.8-4.9-1.8-7.3-2.9c-2.4-1.1-4.5-2.6-6.4-4.4c-1.9-1.8-3.4-4-4.5-6.8c-1.1-2.7-1.7-6-1.7-10c0-3.2,0.6-6.2,1.9-9.2
		c1.3-3,3.1-5.7,5.5-8c2.4-2.3,5.4-4.2,8.9-5.6c3.5-1.4,7.5-2.1,12.1-2.1c5.1,0,9.8,0.8,14.2,2.4c4.3,1.6,8,3.8,11,6.7L197.5,76z"/>
	<path id="XMLID_13_" class="st0" d="M278.7,147h-6.2v-40.7h-53.2V147h-6.2V62.1h6.2v39.6h53.2V62.1h6.2V147z"/>
	<path id="XMLID_10_" class="st0" d="M304.9,66.7c0,0.7-0.2,1.4-0.5,2c-0.3,0.6-0.7,1.2-1.2,1.6s-1,0.9-1.7,1.1
		c-0.6,0.3-1.3,0.4-2,0.4c-0.7,0-1.4-0.1-2-0.4c-0.6-0.3-1.2-0.7-1.7-1.1c-0.5-0.5-0.9-1-1.1-1.6c-0.3-0.6-0.4-1.3-0.4-2
		c0-0.7,0.1-1.4,0.4-2.1c0.3-0.7,0.7-1.2,1.1-1.7c0.5-0.5,1-0.9,1.7-1.1c0.6-0.3,1.3-0.4,2-0.4c0.7,0,1.4,0.1,2,0.4
		c0.6,0.3,1.2,0.7,1.7,1.1s0.9,1.1,1.2,1.7C304.8,65.3,304.9,66,304.9,66.7z M302.4,87.3V147h-5.7V87.3H302.4z"/>
	<path id="XMLID_8_" class="st0" d="M317.5,147V87.3h3.1c1,0,1.6,0.5,1.8,1.5l0.5,9c2.7-3.4,5.9-6.2,9.5-8.3
		c3.6-2.1,7.6-3.2,12.1-3.2c3.3,0,6.2,0.5,8.7,1.6c2.5,1,4.6,2.5,6.2,4.5c1.6,2,2.9,4.3,3.7,7.1c0.8,2.8,1.3,5.9,1.3,9.4V147h-5.7
		v-38.2c0-5.6-1.3-10-3.8-13.2c-2.6-3.2-6.5-4.8-11.8-4.8c-3.9,0-7.6,1-10.9,3c-3.4,2-6.4,4.8-9,8.3V147H317.5z"/>
	<path id="XMLID_6_" class="st0" d="M392.7,148c-4,0-7.2-1.1-9.4-3.4c-2.2-2.2-3.4-5.7-3.4-10.4V93.4h-8.6c-0.4,0-0.8-0.1-1.1-0.4
		c-0.3-0.2-0.4-0.6-0.4-1v-2.2l10.2-0.7l1.4-21.4c0-0.4,0.2-0.7,0.4-1c0.3-0.3,0.6-0.4,1-0.4h2.7v22.8h18.8v4.3h-18.8v40.5
		c0,1.6,0.2,3.1,0.6,4.2c0.4,1.2,1,2.2,1.7,2.9c0.7,0.8,1.6,1.3,2.6,1.7c1,0.4,2.1,0.5,3.2,0.5c1.4,0,2.7-0.2,3.7-0.6
		s1.9-0.9,2.7-1.4c0.8-0.5,1.4-1,1.9-1.4c0.5-0.4,0.9-0.6,1.1-0.6c0.3,0,0.6,0.2,1,0.6l1.6,2.5c-1.5,1.7-3.4,3-5.8,4.1
		C397.7,147.5,395.2,148,392.7,148z"/>
	<path id="XMLID_4_" class="st0" d="M425.8,93.2V80.4c0-0.7,0-1.3,0.1-1.8c0.1-0.5,0.3-1.1,0.6-1.8c-0.4,0.6-0.9,1.1-1.3,1.4
		c-0.4,0.3-0.9,0.7-1.5,1l-11.3,6.5l-1.5-2.6l11.3-6.6c0.6-0.3,1.1-0.6,1.6-0.7c0.5-0.2,1.1-0.3,1.9-0.4c-0.8-0.1-1.4-0.3-1.9-0.5
		c-0.5-0.2-1-0.5-1.6-0.8l-11.4-6.6l1.6-2.7l11.3,6.6c0.6,0.4,1.1,0.8,1.5,1.2c0.4,0.4,0.8,0.9,1.4,1.6c-0.3-0.8-0.5-1.4-0.7-2
		c-0.1-0.6-0.2-1.2-0.2-1.9V57.4h3.1v12.8c0,0.7-0.1,1.4-0.2,1.9c-0.1,0.6-0.3,1.2-0.6,2c0.5-0.7,0.9-1.2,1.3-1.6
		c0.4-0.4,0.9-0.8,1.6-1.1l11.3-6.5l1.6,2.7l-11.3,6.5c-0.6,0.4-1.2,0.6-1.7,0.8c-0.5,0.2-1.1,0.3-1.8,0.4c0.7,0.1,1.3,0.3,1.8,0.4
		c0.5,0.2,1,0.4,1.6,0.7l11.3,6.6l-1.5,2.7L431,79.2c-0.6-0.4-1.1-0.7-1.5-1c-0.4-0.3-0.9-0.8-1.4-1.5c0.2,0.7,0.4,1.3,0.6,1.9
		c0.1,0.5,0.2,1.1,0.2,1.8v12.8H425.8z"/>
</g>
</svg>
